<?xml version="1.0" encoding="UTF-8"?>
<svg id="Capa_1" data-name="Capa 1" xmlns="http://www.w3.org/2000/svg" viewBox="0 0 353.58 383.28">
  <defs>
    <style>
      .cls-1 {
        fill: #877446;
        stroke-width: 0px;
      }
    </style>
  </defs>
  <path class="cls-1" d="M33.84,383.28c-4.12-2.39-5.38-6.01-5.21-10.66.26-6.98.19-13.97-.02-20.96-.05-1.68-.77-3.68-1.87-4.93C9.44,326.98.54,303.99.2,277.77c-.21-15.97-.36-31.95.13-47.9.16-5.31,2.4-10.56,3.69-15.84.46-1.89,1.25-3.76,1.32-5.66.33-9.21-.19-18.51.84-27.63,1.25-11.03,7.63-19.27,17.04-25.11.53-.33,1.08-.61,1.63-.92,3.59-1.99,8.68-3.15,10.37-6.2,1.86-3.36.66-8.46.7-12.8.05-4.74-.27-9.51.14-14.21.2-2.29,1.11-5.03,2.66-6.63,13.99-14.42,28.11-28.7,42.43-42.79,1.73-1.71,4.8-2.73,7.31-2.84,7.72-.36,15.47-.18,23.2-.12,19.25.13,30.92,16.04,25.29,34.41-.14.46-.25.92-.51,1.85,8.58,0,16.87.02,25.17-.05.59,0,1.49-.56,1.72-1.09,3.63-8.28,7.17-16.61,10.99-25.52-4,0-7.32.04-10.64,0-10.87-.17-18.26-7.57-18.32-18.45-.06-10.85-.08-21.71,0-32.56.08-10.44,7.41-18.06,17.87-18.1,32.07-.13,64.14-.13,96.21,0,10.43.04,17.73,7.69,17.81,18.17.08,10.98.09,21.96,0,32.94-.09,10.36-7.6,17.79-18.01,18-3.36.07-6.73.01-10.71.01.52,1.46.85,2.57,1.31,3.64,2.73,6.42,5.61,12.78,8.18,19.26,1.1,2.79,2.5,3.91,5.69,3.88,17.84-.18,35.69-.1,53.53-.08,21.81.02,36.32,14.56,36.34,36.38.01,11.35.02,22.71,0,34.06-.01,5.5-2.82,8.92-7.32,9.02-4.64.11-7.63-3.4-7.64-9.07-.02-11.6.02-23.21-.01-34.81-.03-12.51-8.09-20.6-20.61-20.6-69.88-.02-139.76-.03-209.63.09-1.93,0-4.05,1.3-5.74,2.47-2.64,1.83-4.99,4.06-8.02,6.6,6.24,3.49,11.11,6.23,15.98,8.94,12.63,7.04,25.23,14.12,37.91,21.07,5.54,3.03,10.7,6.4,13.93,12.58,14.85-18,33.59-26.39,56.56-23.76,16.34,1.87,29.71,9.7,40.03,22.53,20.97,26.07,16.42,64.76-9.85,85.6-26.34,20.9-67.44,17.49-89.28-14.83-2.46,1.83-4.77,3.93-7.42,5.41-2.68,1.5-5.7,2.4-8.95,3.71,0,1.16.06,2.75,0,4.33-.81,19.23-21.31,30.64-38.09,21.09-7.02-3.99-13.83-8.35-21.74-13.15.42,6.7.13,12.71,1.32,18.4,1.71,8.18,9.35,13.57,18.22,14.02,2.24.11,4.49.04,6.74.04,69.13,0,138.26.01,207.39,0,13.17,0,21.23-8.1,21.27-21.21.01-4.37,0-8.73,0-13.1,0-5.12-.04-10.23.01-15.35.05-5.14,3.01-8.49,7.43-8.52,4.42-.03,7.49,3.34,7.51,8.44.05,9.48.03,18.96.01,28.45-.04,21.46-14.73,36.24-36.21,36.25-49.54.04-99.08.01-148.62.01-1.61,0-3.21,0-4.78,0-1.21,6.86-2.09,13.51-3.59,20.02-3.99,17.28-11.73,32.79-22.88,46.56-1.85,2.28-4.19,4.16-6.3,6.23h-4.49c-6.41-4.13-7.03-8.18-2.12-14.03,8.5-10.15,14.87-21.5,18.99-34.09,2.59-7.91,4.35-15.98,4.81-24.68-1.73,0-3.08,0-4.43,0-12.98,0-25.95,0-38.93,0-6.33,0-12.43-1.1-17.97-4.31-11.5-6.65-17.55-16.67-17.94-29.96-.18-6.18-.03-12.38-.03-18.82-2.52,0-4.53.2-6.49-.04-3.79-.47-6.37-3.4-6.52-7.05-.14-3.53,2.11-7.34,5.48-7.42,7.79-.19,15.7-2.03,23.12,3.07,8.93,6.13,18.37,11.52,27.73,17,7.47,4.37,16.17-.44,16.13-8.72-.02-4.42-2.35-7.41-6.04-9.65-11.62-7.04-23.15-14.23-34.83-21.17-1.9-1.13-4.37-1.7-6.61-1.79-5.85-.25-11.73-.01-17.59-.11-4.94-.08-8.09-3.04-8.15-7.4-.06-4.54,3.15-7.49,8.32-7.53,6.74-.05,13.49-.29,20.21.11,3.2.19,6.68,1.03,9.42,2.62,13.36,7.76,26.47,15.97,39.8,23.78,2.34,1.37,5.35,2.25,8.04,2.21,4.48-.08,8.02-3.64,8.89-7.79,1.01-4.85-.91-9.24-5.69-11.92-19.56-10.99-39.15-21.91-58.81-32.71-1.13-.62-3.15-.52-4.37.07-6.28,3.03-12.38,6.45-18.66,9.47-1.81.87-4.1,1.43-6.04,1.16-3.23-.46-5.28-2.8-5.78-6.08-.55-3.64,1.15-6.27,4.34-7.94,7.51-3.93,15.13-7.65,22.52-11.78,4.27-2.38,7.93-2.35,12.22.12,14.69,8.44,29.55,16.61,44.37,24.83,5.73,3.17,12,1.59,14.91-3.63,2.85-5.11,1.13-11.32-4.4-14.43-19.66-11.07-39.38-22.02-59.13-32.92-.98-.54-2.73-.66-3.69-.16-16.89,8.85-33.75,17.75-50.52,26.8-6.22,3.36-9.83,8.91-10.62,15.85-.53,4.65-.1,9.4-.1,14.23,4.38.22,7.82,1.75,8.7,6.3.85,4.38-1.87,6.79-5.26,8.96-6.03,3.87-8.83,9.64-8.84,16.76-.02,14.6.1,29.19-.03,43.79-.23,25.27,8.15,47.08,25.53,65.51,1.69,1.79,2.82,4.78,2.92,7.27.35,8.84-.04,17.71.21,26.57.12,4.52-1.36,7.72-5.42,9.69h-4.49ZM211.23,63.74c15.33,0,30.67,0,46,0,4.52,0,5.04-.51,5.05-4.87.02-9.85-.09-19.69.06-29.54.05-3.53-1.21-4.89-4.79-4.88-30.79.08-61.58.04-92.37.05-4.36,0-4.85.54-4.86,5.07-.02,9.72-.02,19.44,0,29.17,0,4.49.49,5,4.91,5,15.33.02,30.67,0,46,0ZM211.26,162.82c-25.34.02-45.86,20.59-45.86,45.96,0,25.37,20.54,45.87,45.92,45.86,25.38-.01,45.89-20.55,45.86-45.93-.02-25.35-20.6-45.92-45.93-45.89ZM50.91,140.88c13.35-7.69,27.91-12.29,37.36-24.78,5.96-7.88,13.09-12.52,23.81-11.13,6.77.88,11.57-4.42,11.5-10.45-.07-6.08-4.78-10.33-11.74-10.43-6.35-.09-12.72-.14-19.06.07-1.54.05-3.42.81-4.5,1.88-11.93,11.86-23.75,23.83-35.55,35.83-.81.83-1.71,2.03-1.75,3.08-.18,5.07-.08,10.15-.08,15.93ZM179.34,105.12h63.92c-3.7-8.64-7.17-16.86-10.81-25.01-.32-.71-1.73-1.32-2.64-1.33-12.34-.09-24.69-.09-37.03,0-.91,0-2.32.62-2.64,1.34-3.64,8.14-7.11,16.36-10.81,25Z"/>
  <path class="cls-1" d="M352.91,23.38c.07,3.9-2.31,6.69-6.39,7.49-7.34,1.45-8.22,2.33-9.66,9.66-.78,3.98-3.75,6.6-7.47,6.58-3.91-.02-6.74-2.72-7.36-7.02-.87-6.03-2.84-8.03-9.01-9.1-4.59-.8-7.31-3.69-7.19-7.64.12-3.84,2.74-6.46,7.22-7.23,6.11-1.04,8.1-3.07,8.97-9.14C322.66,2.7,325.52,0,329.43,0c3.72,0,6.67,2.62,7.44,6.61,1.4,7.26,2.31,8.17,9.68,9.63,3.93.78,6.29,3.43,6.36,7.15Z"/>
  <path class="cls-1" d="M353.53,211.2c-.07,4.13-3.66,7.52-7.76,7.35-3.97-.17-7.22-3.6-7.16-7.57.06-4.12,3.65-7.52,7.75-7.34,3.98.17,7.23,3.6,7.16,7.57Z"/>
  <path class="cls-1" d="M211.4,178.06c16.98.04,30.63,13.73,30.62,30.7,0,17.07-13.93,30.88-31.02,30.76-16.85-.12-30.51-14.02-30.44-30.96.07-16.94,13.82-30.53,30.83-30.49ZM227.05,208.62c-.05-8.65-7.01-15.56-15.7-15.58-8.87-.02-15.85,6.99-15.8,15.85.05,8.61,7.09,15.63,15.7,15.66,8.76.03,15.86-7.13,15.81-15.93Z"/>
</svg>