<?xml version="1.0" encoding="UTF-8"?>
<svg id="Capa_1" data-name="Capa 1" xmlns="http://www.w3.org/2000/svg" viewBox="0 0 131.02 114.09">
  <defs>
    <style>
      .cls-1 {
        fill:#C8B273;
        stroke-width: 0px;
      }
    </style>
  </defs>
  <path class="cls-1" d="M131.02,7.54c-9.35,8.87-18.29,16.76-26.52,25.34-6.49,6.77-8.8,15.46-8.35,24.86.28,5.99,2.72,8.62,8.82,9.24,3.63.37,7.36.39,10.85,1.32,7.28,1.93,11.76,6.82,12.69,14.37.46,3.77.66,7.71.09,11.44-1.97,13.04-10.03,19.74-23.28,19.97-10.77.19-20.66-1.88-27.51-11.11-5.49-7.39-6.78-16.16-7.16-25.05-1.21-28.29,11.39-49.61,33.74-65.8,5.24-3.8,10.98-6.91,16.31-10.59,3.31-2.28,5.57-2.15,7.45,1.63.94,1.9,2.33,3.57,2.87,4.39Z"/>
  <path class="cls-1" d="M60.93,8.24c-7.27,6.09-14.63,11.75-21.39,18.05-8.11,7.57-13.53,16.66-14.12,28.26-.43,8.48,2.43,11.68,10.82,12.67,5.27.62,11.07,1.67,15.37,4.47,7.97,5.18,7.25,14.12,6.37,22.26-1.36,12.58-9.87,20.01-22.57,20.08-4.45.03-9.04-.25-13.35-1.3-13.03-3.19-20.52-14.47-21.78-30.61C-1.98,53.12,9.36,30.62,32.27,13.55c5.99-4.46,12.55-8.14,18.75-12.33,3.08-2.08,5.05-1.5,6.66,1.76.95,1.92,2.24,3.66,3.25,5.27Z"/>
</svg>