<?xml version="1.0" encoding="UTF-8"?>
<svg id="Capa_1" data-name="Capa 1" xmlns="http://www.w3.org/2000/svg" viewBox="0 0 398.33 351.59">
  <defs>
    <style>
      .cls-1 {
        fill: #c8b273;
        stroke-width: 0px;
      }
    </style>
  </defs>
  <path class="cls-1" d="M199.68,65.31c10.48-17.57,22.99-33.52,39.56-45.82,33.61-24.95,69.31-25.56,106.88-3.43,29.54,17.4,43.91,44.35,49.91,76.47,7.74,41.4-4.54,77.98-29.25,111.07-15.92,21.33-36.24,37.97-57.04,54.22-28.74,22.45-57.34,45.1-85.48,68.29-9.29,7.65-16.97,17.25-24.91,25.47-9.71-9.74-19.12-20.88-30.21-29.96-29.24-23.95-59.13-47.12-88.93-70.37-24.77-19.33-47.24-40.77-62.25-68.78-23.83-44.47-24.23-88.93.47-133.48C35.64,17.98,87.36-8.81,126.17,2.74c21.52,6.4,38.77,18.96,53.09,35.74,7.2,8.44,13.49,17.65,20.43,26.83Z"/>
</svg>