<?xml version="1.0" encoding="UTF-8"?>
<svg id="Capa_1" data-name="Capa 1" xmlns="http://www.w3.org/2000/svg" viewBox="0 0 477.91 477.95">
  <defs>
    <style>
      .cls-1 {
        fill: #fff;
        stroke-width: 0px;
      }
    </style>
  </defs>
  <path class="cls-1" d="M224.99,477.95c-9.22-1.23-18.52-2.02-27.63-3.77-75.65-14.54-132.19-55.73-169.25-123.13C7.27,313.15-2.22,272.05.44,228.95,5.97,139.26,48.52,72.03,126.85,28.16,164.57,7.03,205.77-1.84,248.9.31c67.4,3.36,123.99,30.34,168.99,80.67,34.08,38.12,53.18,83.13,58.85,133.89.38,3.37.78,6.74,1.17,10.1v28c-.27,1.34-.7,2.67-.79,4.02-2.32,33.34-11.14,64.92-27.27,94.12-37.17,67.3-93.62,108.52-169.24,123.05-9.11,1.75-18.41,2.54-27.62,3.77h-28ZM239.19,15.92C116.37,15.72,16.42,115.38,15.96,238.51c-.46,122.89,99.66,223.35,222.76,223.53,122.88.17,223.24-100.11,223.29-223.11.04-122.85-99.82-222.8-222.81-223.01Z"/>
  <path class="cls-1" d="M95.57,238.77c0-33.28,0-66.57,0-99.85,0-10.03,2.03-19.42,8.33-27.54,8.55-11.02,20.08-15.8,33.72-15.81,67.64-.05,135.29-.12,202.93.04,20.73.05,35.34,11.29,40.45,30.59,1.06,3.99,1.34,8.29,1.34,12.45.08,66.88.08,133.75.04,200.63-.01,21.6-11,36.6-30.74,41.78-4,1.05-8.3,1.31-12.46,1.31-66.87.08-133.73.08-200.6.04-21.39-.01-36.28-10.85-41.54-30.41-1.15-4.28-1.4-8.91-1.42-13.38-.11-33.28-.06-66.57-.06-99.85ZM238.99,366.45c33.6,0,67.19.05,100.79-.02,16.85-.04,26.6-9.52,26.62-26.18.09-67.52.09-135.03,0-202.55-.02-16.47-9.68-26.14-26.16-26.16-67.51-.09-135.01-.09-202.52,0-16.47.02-26.13,9.68-26.15,26.16-.09,67.52-.09,135.03.08,202.55.01,4.37.88,9.12,2.76,13.02,4.78,9.96,13.63,13.24,24.25,13.21,33.44-.1,66.88-.04,100.33-.04Z"/>
  <path class="cls-1" d="M159.45,238.86c.11-44.03,35.61-79.48,79.53-79.43,44.13.05,79.85,35.94,79.54,79.93-.31,44.07-35.91,79.4-79.79,79.17-44.07-.23-79.4-35.74-79.29-79.67ZM239.4,175.36c-35.23-.28-63.82,27.99-64.03,63.32-.21,35.08,27.77,63.49,62.95,63.92,35.17.43,63.92-27.78,64.27-63.09.35-35.23-27.86-63.87-63.19-64.15Z"/>
  <path class="cls-1" d="M326.75,127.6c13.19.09,23.64,10.64,23.6,23.81-.04,13.12-10.64,23.78-23.69,23.84-13.13.06-24.21-11.12-23.95-24.17.26-13.16,10.93-23.58,24.04-23.48ZM326.7,159.2c4.4-.06,7.82-3.72,7.65-8.18-.17-4.31-3.52-7.48-7.87-7.43-4.24.05-7.66,3.42-7.73,7.65-.07,4.35,3.59,8.03,7.94,7.96Z"/>
</svg>