<?xml version="1.0" encoding="UTF-8"?>
<svg id="Capa_1" data-name="Capa 1" xmlns="http://www.w3.org/2000/svg" viewBox="0 0 356.73 180.16">
  <defs>
    <style>
      .cls-1 {
        fill: #877446;
        stroke-width: 0px;
      }
    </style>
  </defs>
  <path class="cls-1" d="M0,89.9c1.03-19.1,1.69-38.08,6.9-56.54,1.35-4.78,3.13-9.5,5.29-13.97C19.53,4.22,32.84-1.81,48.05.6c25.46,4.02,50.16,10.13,72.86,22.78,11.32,6.3,21.47,14.14,30.79,23.13,1.33,1.29,3.62,2.21,5.48,2.23,14.38.18,28.76.15,43.13.03,1.57-.01,3.6-.51,4.64-1.56,22.05-22.14,49.09-34.82,79.11-41.74,9.36-2.16,18.84-3.95,28.36-5.17,12.18-1.55,22.05,3.04,29.16,13.12,6.79,9.63,9.92,20.72,11.62,32.13,4.75,31.87,5.08,63.78-1.4,95.45-1.55,7.59-4.44,15.15-8.05,22.02-7.2,13.71-18.37,18.69-33.7,16.54-25.4-3.56-49.96-9.8-72.64-22.22-11.58-6.35-22.08-14.17-31.39-23.53-1.84-1.85-3.66-2.54-6.24-2.52-14.25.11-28.51,0-42.76.12-1.57.01-3.59.52-4.64,1.57-22.06,22.12-49.1,34.82-79.13,41.74-9.23,2.13-18.61,3.79-28,5.09-12.36,1.71-22.33-2.78-29.51-13.05-7.06-10.09-10.31-21.67-11.8-33.61-1.8-14.36-2.68-28.83-3.95-43.25ZM143.18,64.94c.43-1.76.71-3.76,1.42-5.6,1.09-2.79.47-4.68-1.76-6.78-12.24-11.51-26.06-20.51-41.52-27.07-17.84-7.57-36.54-11.73-55.62-14.59-9.59-1.43-17.41,1.29-22,9.79-3.39,6.29-6.27,13.17-7.72,20.13-6.43,30.92-6.06,62.06-1.26,93.16,1.37,8.9,3.86,17.57,8.69,25.35,4.73,7.64,11.58,11.36,20.54,10.16,17.86-2.4,35.41-6.18,52.28-12.71,17.69-6.84,33.53-16.58,47.22-29.78,1.66-1.6,2.21-3.01,1.44-5.19-.78-2.21-1.22-4.55-1.86-7.02-.96.25-1.78.47-2.6.67-14.54,3.54-29.03,7.24-43.63,10.52-5.62,1.26-8.38-.43-8.85-4.05-.46-3.57,2.08-5.15,7.55-6.4,14.57-3.35,29.04-7.14,43.56-10.74,1.89-.47,2.46-1.46,2.35-3.48-.29-5.11-.27-10.24-.33-15.36-.04-3.21,1.2-7.37-.35-9.39-1.73-2.24-5.91-2.85-9.16-3.62-12.61-3-25.27-5.81-37.93-8.63-4.02-.89-6.1-3.04-5.64-6.13.48-3.22,3.02-4.81,7.07-4.24,4.2.59,8.44,1.09,12.56,2.08,11.75,2.82,23.44,5.87,35.55,8.93ZM214.24,115.01c-.49,1.95-.81,4.06-1.56,5.99-1.05,2.68-.46,4.44,1.69,6.47,12.12,11.46,25.82,20.44,41.13,26.99,17.69,7.57,36.24,11.86,55.22,14.61,11.79,1.71,19.36-1.62,24.58-12.3,2.66-5.44,4.88-11.3,6.08-17.22,6.31-31.07,6.08-62.31,1.21-93.54-1.39-8.9-3.88-17.56-8.74-25.33-4.77-7.63-11.75-11.58-20.6-9.91-14.69,2.78-29.46,5.6-43.77,9.82-21,6.19-39.61,17.07-55.34,32.52-.95.93-2.07,2.46-1.93,3.57.35,2.91,1.36,5.73,2.13,8.69,6.46-1.92,12.59-4.07,18.88-5.53,9.72-2.25,19.53-4.1,29.34-5.93,3.75-.7,6.26,1.07,6.78,4.16.51,2.99-1.45,5.31-5.18,6.09-.85.18-1.74.2-2.59.41-14.39,3.59-28.77,7.21-43.16,10.78-2.07.51-2.55,1.58-2.47,3.74.24,6.99.34,14,.04,20.98-.12,2.85.48,4.12,3.26,5.06,14.47,4.89,29.2,8.59,44.33,10.73,4.29.61,6.38,3.09,5.78,6.32-.59,3.14-3.12,4.67-7.24,3.99-6.53-1.06-13.09-2.03-19.51-3.58-9.44-2.27-18.76-5.02-28.35-7.62ZM155.65,59.43c-5.59,15.06-5.56,47.03,0,61.29h46.32c5.28-20.48,5.35-40.84,0-61.29h-46.33Z"/>
  <path class="cls-1" d="M336,130.6c-1.33,5.04-2.52,10.13-4.06,15.1-.89,2.87-3.26,4.19-6.2,3.35-3.08-.88-4.36-3.27-3.68-6.4,1-4.61,2.17-9.19,3.31-13.77.77-3.09,2.72-4.79,5.97-4.31,3.31.49,4.49,2.77,4.66,6.03Z"/>
</svg>