<?xml version="1.0" encoding="UTF-8"?>
<svg id="Capa_1" data-name="Capa 1" xmlns="http://www.w3.org/2000/svg" viewBox="0 0 381.27 384">
  <defs>
    <style>
      .cls-1 {
        fill: #877446;
        stroke-width: 0px;
      }
    </style>
  </defs>
  <path class="cls-1" d="M190.6,0c4.02,2.49,5.09,6.15,5.07,10.76-.11,46.48-.04,92.97-.11,139.45,0,5.08.04,10.33-1.12,15.22-4.03,16.88-21.35,26.5-37.74,21.42-16.52-5.12-25.35-22.69-19.53-38.87,5.83-16.21,23.74-24.15,39.78-17.64,1.01.41,2.04.79,3.39,1.31V55.12c-40.13,11.14-80.06,22.23-120.21,33.38,0,1.67,0,3.15,0,4.63,0,34.37.06,68.73-.04,103.1-.03,12.26-7.76,23.13-19.11,27.55-11.42,4.44-24.27,1.56-32.72-7.34-9.77-10.29-11.02-25.92-3.02-37.62,7.99-11.69,23.05-16.22,36.16-10.9,1.12.46,2.25.9,3.73,1.5,0-1.83,0-3.3,0-4.77,0-38.99,0-77.98,0-116.97,0-6.68,1.46-8.56,7.83-10.33C96.12,25.34,139.26,13.34,182.39,1.31c1.03-.29,1.98-.87,2.96-1.31,1.75,0,3.5,0,5.25,0ZM180.33,17.48c-9.96,2.76-19.44,5.39-28.91,8.02-29.41,8.18-58.83,16.36-88.23,24.61-1.12.31-2.88,1.34-2.9,2.08-.23,6.79-.13,13.58-.13,20.67,1.24-.31,1.95-.48,2.65-.67,14.41-4,28.81-8.02,43.22-12.01,23.78-6.59,47.57-13.15,71.32-19.83,1.14-.32,2.8-1.66,2.84-2.57.24-6.58.13-13.17.13-20.29ZM30.07,210.8c8.34,0,15-6.61,15.04-14.93.03-8.36-6.53-15.05-14.84-15.13-8.52-.08-15.24,6.6-15.21,15.12.03,8.33,6.67,14.94,15.02,14.95ZM180.33,158.35c-.12-8.95-6.31-15.26-14.94-15.23-8.33.03-15.02,6.68-15.05,14.96-.03,8.33,7,15.26,15.35,15.13,8.18-.12,14.74-6.79,14.64-14.86Z"/>
  <path class="cls-1" d="M248.35,384c-7.25-1.85-14.29-4.09-20.41-8.72-13.93-10.54-20.36-28.48-16.05-45.33,4.39-17.17,18.53-29.82,35.97-32.32,11.58-1.66,22.03,1.1,31.55,7.73.78.54,1.59,1.05,3,1.97v-4.97c0-61.86,0-123.73.01-185.59,0-1.87,0-3.77.36-5.59.7-3.53,3.73-5.72,7.36-5.64,3.44.08,6.76,2.29,6.91,5.66.53,11.96,7.98,19.33,16.7,25.75,10.46,7.7,21.3,14.87,31.75,22.58,12.82,9.45,23.92,20.49,30.32,35.46,7.61,17.8,6.52,35.88,1.03,53.89-2.25,7.37-5.31,14.52-8.27,21.65-2,4.83-6.15,6.52-10.24,4.66-4.06-1.84-5.46-6.1-3.33-10.81,5.02-11.07,9.13-22.4,10.62-34.56,1.96-15.95-1.37-30.55-12.28-42.5-6.35-6.96-13.68-13.16-21.19-18.88-11.11-8.45-22.79-16.15-34.38-24.29-.09.51-.35,1.27-.35,2.03-.02,62.61-.14,125.23.1,187.84.04,11.71-1.5,22.64-8.62,32.23-6.94,9.34-16.16,15.05-27.66,17.07-.58.1-1.11.45-1.66.68h-11.25ZM282.2,340.54c.98-12.7-10.05-28.46-28.5-28.42-15.77.03-28.33,13.16-28.04,29.01.29,15.68,13.1,28.06,28.82,27.85,15.53-.21,27.94-12.93,27.72-28.44Z"/>
  <path class="cls-1" d="M55.6,384c-4.3-1.88-9.01-3.15-12.81-5.75-12.59-8.61-16.3-25.24-9.11-38.58,7.25-13.46,23.34-19.3,37.63-13.66,1.14.45,2.27.9,3.89,1.55v-4.36c0-28.61,0-57.22,0-85.82,0-1,0-2,0-3-.02-3.4,1.22-6.14,4.36-7.68,3.02-1.48,5.8-.68,8.39,1.26,9.5,7.11,19.95,12.24,31.49,15.14,17.12,4.3,33.13,1.81,48.16-7.49,1.91-1.18,4.39-2.12,6.56-2.05,3.22.11,5.44,2.32,6.24,5.59.85,3.47-.5,6.19-3.33,8.08-10.02,6.69-20.97,10.92-32.98,12.34-17.88,2.12-34.41-2.28-50.22-10.24-.99-.5-1.99-.98-3.35-1.64-.12,1.2-.3,2.11-.3,3.03,0,33.98,0,67.96.06,101.94.03,15.42-9.2,27.17-24.37,30.75-.46.11-.88.4-1.32.61h-9ZM75.12,353.88c-.02-8.44-6.49-14.94-14.9-14.97-8.37-.03-15.05,6.53-15.11,14.85-.07,8.45,6.76,15.3,15.18,15.24,8.32-.06,14.85-6.72,14.84-15.11Z"/>
</svg>