<?xml version="1.0" encoding="UTF-8"?>
<svg id="Capa_1" data-name="Capa 1" xmlns="http://www.w3.org/2000/svg" viewBox="0 0 359.31 384">
  <defs>
    <style>
      .cls-1 {
        fill: #877446;
        stroke-width: 0px;
      }
    </style>
  </defs>
  <path class="cls-1" d="M307.94,0c2.07,1.06,4.29,1.92,6.19,3.23,5.6,3.85,7.96,9.41,7.93,16.09,0,1.62,0,3.24,0,5.49,2.08,0,4.01-.02,5.94,0,17.79.18,30.96,12.78,31.15,30.59.28,26.62.1,53.24.07,79.86,0,4.41-2.18,6.95-5.63,6.91-3.44-.04-5.56-2.58-5.58-7.02-.05-12.12-.02-24.23-.02-36.63H73.43c0,1.37,0,2.71,0,4.05,0,32.62.02,65.24-.05,97.86,0,2.56.65,4.43,2.51,6.26,10.41,10.25,20.7,20.62,30.5,30.43,2.94-.4,5.22-.97,7.51-.97,64.62-.05,129.24-.04,193.86-.04,1,0,2.01-.03,3,.09,2.84.37,4.55,2,4.85,4.85.32,3.02-1.08,5.14-3.99,5.94-1.53.42-3.21.35-4.82.35-61.5.02-122.99.01-184.49.01h-5.41c1.38,1.5,2.21,2.46,3.11,3.35,13.52,13.53,26.99,27.1,40.61,40.53,2.52,2.49,3.58,5.08,3.51,8.6-.19,8.87-.21,17.75.05,26.62.06,1.98,1.21,4.11,2.38,5.81,1.33,1.92,3.37,3.34,4.88,5.16,2.13,2.56,1.96,5.69-.37,7.72-2.4,2.09-4.97,2.05-7.49.11-.3-.23-.62-.46-.83-.76-4.02-6.01-9.76-7.13-16.57-6.62-6.84.51-13.74.02-20.61.15-3.1.06-5.44-.92-7.64-3.14-13.54-13.68-27.2-27.24-40.77-40.89-.95-.96-1.52-2.3-2.26-3.47-.4.28-.81.56-1.21.84-.08,1.06-.23,2.12-.23,3.18-.01,19-.04,38,0,56.99.03,13.35,7.91,21.19,21.23,21.19,61.37,0,122.74,0,184.11,0,1,0,2,.04,3,0,3.15-.14,6.07.19,7.45,3.63,1.4,3.49-.77,5.59-3.05,7.62H88.17c-.2-.15-.37-.37-.59-.43-17.28-4.64-25.39-15.17-25.4-33.04-.01-22.61-.04-45.22.05-67.84,0-2.58-.76-4.39-2.6-6.21-17.82-17.69-35.57-35.45-53.3-53.24-8.48-8.51-8.43-18.89.06-27.46,5.54-5.59,11.03-11.23,16.73-16.66,7.28-6.95,17.63-6.99,25.02-.15,3.94,3.65,7.63,7.57,11.46,11.33.63.62,1.41,1.1,2.59,2v-5.16c0-19.86,0-39.73,0-59.59,0-23.61-.07-47.22.03-70.83.07-17.1,10.93-29.63,27.34-31.66,3.16-.39,6.41-.06,9.93-.06,0-2.59-.03-4.56,0-6.53C99.64,8.8,105.18,3.26,113.68,0h7.5c11.88,3.93,15.72,12.74,14.24,24.52h26.47c0-3.38-.41-6.55.08-9.56C163.27,6.99,168.76,2.65,175.93,0h7.5c11.79,4.03,15.63,12.84,14.17,24.48h25.75c.52-4.41.46-8.62,1.59-12.48C226.83,5.51,232.08,2.15,238.18,0,240.68,0,243.18,0,245.68,0c.28.22.53.53.84.65,9.21,3.42,13.32,9.23,13.37,18.94,0,1.69,0,3.37,0,5.04h26.05c0-1.76-.26-3.41.05-4.93.8-3.84,1.32-7.88,2.94-11.38C291.1,3.65,295.85,1.75,300.44,0c2.5,0,5,0,7.5,0ZM99.47,36.49c-16.11-2.39-26.02,5.96-26.04,21.55-.01,6.62,0,13.25,0,19.87,0,2.96,0,5.92,0,8.79h274.56c0-10.17.05-20.03-.01-29.9-.1-14.5-11.32-23.34-25.94-20.18,0,2.15.1,4.39-.02,6.62-.55,10.21-8.28,17.68-18.2,17.63-9.92-.05-17.51-7.63-17.85-17.89-.07-2.21-.01-4.42-.01-6.66h-26.09c0,2.61.11,4.98-.02,7.33-.52,9.84-8.42,17.28-18.2,17.22-9.8-.06-17.51-7.64-17.8-17.54-.07-2.33-.01-4.65-.01-7.27h-26.13c0,2.21,0,3.94,0,5.66-.06,11.23-7.6,19.19-18.13,19.14-10.36-.04-17.85-7.98-17.92-18.98-.01-1.83,0-3.66,0-5.82h-26.12c0,2.55.04,4.64,0,6.74-.22,10.39-7.91,18.08-18.04,18.07-10.03-.02-17.79-7.84-18.01-18.18-.04-2.09,0-4.17,0-6.19ZM35.55,235.46c29.45,29.45,58.81,58.81,88.01,88.02,2.79-2.79,5.84-5.84,8.5-8.5-29.27-29.3-58.62-58.68-87.65-87.74-2.94,2.72-6.12,5.67-8.86,8.22ZM149.98,297.66c-29.58-29.57-58.89-58.88-87.84-87.83-2.95,2.67-6.15,5.57-8.85,8.02,29.49,29.49,58.86,58.86,88.2,88.21,2.7-2.67,5.72-5.65,8.49-8.39ZM53.77,200.6c-4.5-4.53-8.88-9.14-13.49-13.51-2.81-2.66-6.37-2.69-9.12-.04-6.11,5.89-12.09,11.92-17.99,18.02-2.37,2.45-2.74,5.82-.53,8.21,4.6,4.98,9.75,9.47,14.47,13.97,8.73-8.72,17.55-17.53,26.66-26.64ZM310.8,30.63c0-4,.1-7.99-.03-11.99-.14-4.46-2.95-7.38-6.84-7.37-3.91,0-6.65,2.9-6.7,7.42-.09,7.87-.09,15.73,0,23.6.06,4.62,2.68,7.32,6.74,7.31,3.96-.01,6.66-2.83,6.8-7.35.12-3.87.03-7.74.02-11.61ZM124.28,30.67c0-4.12.08-8.24-.02-12.36-.11-4.18-2.92-7.03-6.7-7.03-3.77,0-6.72,2.85-6.79,7-.13,8.11-.13,16.23,0,24.35.06,4.2,2.92,6.96,6.77,6.97,3.91.01,6.61-2.67,6.72-6.94.11-3.99.02-7.99.02-11.99ZM172.91,30.75c0,3.87-.06,7.74.02,11.61.09,4.45,2.84,7.28,6.85,7.23,3.86-.05,6.6-2.81,6.64-7.05.09-7.99.09-15.98,0-23.97-.04-4.39-2.93-7.35-6.85-7.29-3.9.06-6.59,3.02-6.66,7.49-.07,3.99-.01,7.99-.01,11.99ZM235.08,30.49c0,4-.07,7.99.02,11.99.1,4.32,2.68,7.04,6.55,7.11,4,.08,6.89-2.74,6.95-7.17.11-7.99.11-15.98,0-23.97-.06-4.36-3.09-7.29-7-7.17-3.76.11-6.42,2.98-6.51,7.23-.08,3.99-.02,7.99-.02,11.99ZM152.63,312.68c-4.57,4.59-9.33,9.35-13.8,13.84h13.8v-13.84Z"/>
  <path class="cls-1" d="M304.94,384c-2.86-1.64-4.73-3.91-3.63-7.35,1.11-3.46,4.02-3.98,7.26-3.93,6.62.1,13.25.09,19.87.01,11.08-.12,19.11-7.93,19.49-19.04.19-5.62.06-11.25.06-16.87,0-57.99,0-115.97.01-173.96,0-1.74-.03-3.53.35-5.21.64-2.81,2.66-4.15,5.51-4.05,2.86.11,4.69,1.65,5.17,4.48.25,1.46.2,2.99.2,4.48,0,62.61.01,125.22,0,187.83,0,18.09-7.83,28.35-25.22,33.15-.22.06-.39.29-.58.45h-28.5Z"/>
  <path class="cls-1" d="M210.43,210.03c-31.99,0-63.99,0-95.98,0-1.12,0-2.26.06-3.37-.05-3.2-.31-5-2.17-5.29-5.31-.27-2.96,1.99-5.43,5.16-5.84.74-.1,1.5-.05,2.25-.05,64.99,0,129.97,0,194.96,0,1.12,0,2.3-.08,3.34.24,2.83.87,4.38,2.84,4.13,5.89-.24,2.87-1.96,4.53-4.72,5.01-1.22.21-2.49.1-3.74.1-32.24,0-64.49,0-96.73,0Z"/>
  <path class="cls-1" d="M210.71,124.31c32.12,0,64.23,0,96.35,0,1.37,0,2.77-.07,4.11.16,2.66.44,4.18,2.13,4.45,4.81.27,2.66-.81,4.75-3.34,5.65-1.48.53-3.18.6-4.78.6-64.48.03-128.96.03-193.44,0-1.48,0-3.03-.05-4.43-.46-2.76-.81-4.05-2.95-3.78-5.72.26-2.77,1.89-4.6,4.78-4.93,1.36-.16,2.74-.11,4.12-.11,31.99,0,63.98,0,95.97,0Z"/>
  <path class="cls-1" d="M210.79,161.5c31.86,0,63.73,0,95.59,0,1.12,0,2.25-.05,3.37.03,3.66.25,5.85,2.3,5.91,5.48.07,3.38-2.13,5.48-6.01,5.71-1.12.07-2.25.03-3.37.03-63.73,0-127.46,0-191.19,0-1.5,0-3.01.04-4.49-.15-3.07-.39-4.7-2.36-4.79-5.31-.09-2.98,1.56-4.97,4.53-5.57,1.33-.27,2.73-.2,4.1-.2,32.11,0,64.23,0,96.34,0Z"/>
  <path class="cls-1" d="M244.93,273.33c20.63,0,41.25,0,61.88.01,1.49,0,3.03-.03,4.48.26,3.01.61,4.48,2.65,4.34,5.66-.13,2.84-1.7,4.66-4.55,5.12-1.35.21-2.74.19-4.11.19-41.38,0-82.75,0-124.13,0-6.17,0-8.74-1.71-8.67-5.72.07-3.91,2.66-5.53,8.89-5.53,20.63,0,41.25,0,61.88,0Z"/>
</svg>