<?xml version="1.0" encoding="UTF-8"?>
<svg id="Capa_1" data-name="Capa 1" xmlns="http://www.w3.org/2000/svg" viewBox="0 0 512 510.91">
  <defs>
    <style>
      .cls-1 {
        fill: #877446;
        stroke-width: 0px;
      }
    </style>
  </defs>
  <path class="cls-1" d="M0,218.88v-23c2.64-3.47,5.68-6.34,10.46-4.59,4.97,1.82,5.55,6.13,5.44,10.69-.05,1.91,0,3.83,0,6.01,28.07,0,55.36.05,82.66-.15,1.35-.01,3.14-1.99,3.97-3.48,11.76-21.23,23.39-42.53,35.05-63.81.55-1,1.08-2.01,1.87-3.49-9.25-2.55-18.34-4.53-27.08-7.55-27.7-9.56-56.05-13.77-85.31-11.61-3.58.26-7.2.04-11.15.04,0,2.47,0,4.28,0,6.09,0,13.82.24,27.66-.21,41.47-.09,2.83-2.14,6.38-4.42,8.09-1.62,1.22-5.23.25-7.77-.41-1.35-.35-2.33-2.14-3.48-3.29,0-20.67,0-41.34,0-62,2.37-4.57,6.3-5.87,11.19-5.82,12.44.13,24.89.04,37.78.04-.43-1.14-.57-1.77-.88-2.29-6.98-11.92-8.25-24.52-3.83-37.49,3.97-11.65,8.36-23.16,12.88-34.61,3.64-9.23,9.67-16.66,18.39-21.66,14.16-8.12,28.52-7.74,43-.86,31.1,14.8,62.21,29.56,93.28,44.42,2.79,1.34,4.89,1.15,7.85-.05,4.68-1.9,9.84-3.37,14.85-3.53,14.32-.46,28.66-.43,42.98-.01,4.86.14,9.93,1.4,14.41,3.31,3.27,1.39,5.58,1.57,8.74.05,30.91-14.81,61.87-29.51,92.86-44.16,24.86-11.75,49.89-3.18,60.81,21.63,5.82,13.2,9.99,27.13,14.77,40.77.7,1.99.77,4.23.97,6.37.93,9.94-2.04,18.97-7.31,28.09,13.19,0,25.63.09,38.07-.04,4.89-.05,8.82,1.25,11.19,5.82v111.01c-2.95,4.32-7.16,5.23-12.12,5.07-7.91-.26-15.84-.07-23.93-.07v6.76c0,63.65,0,127.3-.01,190.96,0,1.99.09,4.05-.34,5.96-.91,4.05-3.56,6.42-7.81,6.31-4-.1-6.52-2.41-7.35-6.26-.42-1.92-.35-3.97-.35-5.96-.02-63.82-.01-127.64-.01-191.46,0-1.95,0-3.9,0-6.07h-41.82c.79,2.23,1.44,4.26,2.23,6.23,15.18,37.84,25.91,76.88,31.98,117.21.6,4.02.14,7.38-3.38,9.65-3.82,2.46-7.29,1.16-10.48-1.54-2.92-2.48-5.81-5-8.82-7.37-11.88-9.35-23.79-18.65-36.04-28.24-4.54,7.43-8.42,14.21-12.72,20.73-5.96,9.03-11.96,18.06-18.53,26.64-1.67,2.18-5.55,3.6-8.44,3.65-3.62.07-5.6-3.12-6.19-6.77-.18-1.15-.52-2.28-.7-3.43-5.1-33.56-14.34-65.97-27.43-97.26-4.64-11.09-9.97-21.89-14.99-32.83-.32.13-.64.26-.96.39v264.36h156.04c.08-1.87.22-3.49.22-5.11.02-9.83,0-19.66.02-29.49.02-7.22,2.86-11.06,8.06-10.97,5.02.08,7.76,3.83,7.82,10.7,0,.17,0,.33,0,.5,0,13,.28,26-.18,38.98-.13,3.63-2.45,7.17-3.77,10.76H40c-3.25-3.08-4.02-6.87-4.01-11.26.08-89.83.06-179.66.06-269.49v-6.27c-8.34,0-16.14-.19-23.93.07-4.96.16-9.18-.75-12.12-5.07ZM208.37,231.36c-.39-.19-.78-.39-1.17-.58-5.06,11.12-10.41,22.12-15.14,33.38-13.06,31.13-22.15,63.42-27.27,96.81-.69,4.49-1.34,9.25-6.96,10.33-5.19,1-7.85-2.56-10.3-6.28-7.97-12.09-15.97-24.16-23.93-36.26-1.72-2.61-3.3-5.31-5.08-8.17-1.69,1.17-3.09,2.04-4.38,3.05-13.5,10.58-27.01,21.15-40.44,31.81-3.24,2.57-6.6,4.22-10.48,1.94-3.81-2.23-4.29-5.75-3.65-9.98,6.08-40.34,16.81-79.39,32.03-117.22.77-1.92,1.38-3.91,2.1-6h-41.33v271.33h156V231.36ZM287.3,495.68V224.24h-62.48v271.44h62.48ZM286,170.7c37.16,52.39,61.71,109.53,74.25,172.75,1.54-2.16,2.56-3.42,3.4-4.79,6.15-10.09,12.33-20.16,18.37-30.31,4.85-8.14,8.46-9.14,16.04-3.75,10.17,7.24,20.22,14.66,30.32,22.01,1.37,1,2.73,2.01,4.55,3.35,0-1.39.08-1.9-.01-2.37-13.23-65.86-38.07-126.98-74.79-183.26-1.46-2.24-2.78-2.63-5.29-1.91-14.88,4.24-29.82,8.25-44.7,12.45-1.49.42-3.26,1.27-4.06,2.48-4.2,6.39-9.99,10.58-18.07,13.36ZM225.98,170.73c-8.11-2.83-14.01-7.12-18.27-13.67-.77-1.18-2.67-1.85-4.18-2.28-14.25-4.02-28.57-7.78-42.76-12-3.93-1.17-5.72-.32-7.92,3.08-31.68,48.92-54.38,101.71-68.56,158.19-2.09,8.31-3.68,16.75-5.74,26.21,2.44-1.76,3.89-2.82,5.35-3.87,10.38-7.53,20.69-15.15,31.16-22.54,6.09-4.3,10.24-3.29,14.05,3.1,3.32,5.58,6.38,11.31,9.77,16.85,3.93,6.43,8.1,12.71,12.81,20.08,12.6-63.69,37.14-120.74,74.29-173.14ZM309.32,81.52c2.76-1.46,5.04-2.82,7.44-3.91,16.33-7.43,32.49-15.27,49.1-22.02,12.36-5.02,25.48-7.8,38.97-7.67,12.04.12,23.12,2.98,31.28,12.75,3.83,4.59,3.98,9.29.52,12.45-3.43,3.14-8.08,2.66-12.23-1.8-4.88-5.24-10.9-7.81-17.82-7.45-7.43.39-15.03.81-22.2,2.63-26.18,6.66-50.08,18.72-73.22,32.37-1.08.64-2.3,2.19-2.31,3.33-.17,11.79-.1,23.59-.1,35.64,1.35-.21,2.17-.27,2.94-.48,40.57-11.16,81.17-22.21,121.68-33.55,17.22-4.82,25.05-20.22,19.18-37.13-3.76-10.84-7.89-21.55-12-32.26-1-2.61-2.34-5.19-3.99-7.44-8.3-11.29-21.95-14.29-35.72-7.77-30.38,14.36-60.7,28.83-91.04,43.27-1.16.55-2.23,1.29-2.89,1.68.82,5.9,1.57,11.3,2.42,17.36ZM205.1,64.12c-.28-.2-.78-.65-1.36-.93-31.25-14.85-62.43-29.85-93.79-44.44-16.18-7.53-32.09-.77-38.64,15.93-4.13,10.53-8.13,21.11-11.7,31.84-1.38,4.16-2.25,8.85-1.86,13.17,1.16,13.02,8.99,20.96,23.53,24.97,33.99,9.37,67.98,18.72,101.97,28.07,6.47,1.78,12.97,3.48,20,5.37,0-12.23.1-23.71-.13-35.17-.03-1.36-1.61-3.17-2.95-3.95-7.48-4.34-14.97-8.7-22.71-12.55-17.59-8.76-35.44-17.03-54.84-20.94-13.56-2.73-27.13-4.58-37.91,7.78-2.68,3.08-6.79,2.66-9.96-.07-3.19-2.75-4.07-6.7-1.39-9.81,3.51-4.07,7.54-8.12,12.15-10.75,9.63-5.5,20.45-5.52,31.13-4.09,25.12,3.36,47.89,13.5,70.16,24.94,5.29,2.72,10.5,5.58,15.88,8.45.84-6.15,1.62-11.85,2.43-17.81ZM495.88,117.93c-8.75,0-16.92.4-25.04-.08-19.51-1.16-38.42,1.26-56.88,7.73-6.57,2.3-13.46,3.69-20.19,5.56-6.97,1.93-13.92,3.93-21.16,5.98.58,1.11.87,1.69,1.18,2.26,11.98,21.86,24.06,43.68,35.85,65.65,1.56,2.91,3.42,3,5.98,2.99,25.15-.03,50.29-.01,75.44-.03,1.6,0,3.19-.15,4.83-.24v-89.82ZM292.91,108.85c0-10.32.06-20.64-.02-30.96-.07-10.39-5.73-16.05-16.07-16.09-13.82-.05-27.63-.05-41.45,0-10.65.04-16.24,5.65-16.27,16.4-.05,20.31-.05,40.62,0,60.93.02,11,5.66,16.66,16.58,16.69,13.48.04,26.97.04,40.45,0,11.2-.03,16.73-5.65,16.77-17,.03-9.99,0-19.98,0-29.96ZM291.58,207.71c-4.95-7.59-9.36-14.59-14.02-21.4-3.37-4.92-6.16-11.43-10.92-13.85-4.79-2.43-11.7-.69-17.69-.77-.83-.01-1.71-.15-2.49.06-.89.24-2.03.58-2.5,1.26-7.85,11.26-15.62,22.58-23.97,34.7h71.59Z"/>
</svg>