<?xml version="1.0" encoding="UTF-8"?>
<svg id="Capa_1" data-name="Capa 1" xmlns="http://www.w3.org/2000/svg" viewBox="0 0 361.39 361.39">
  <defs>
    <style>
      .cls-1 {
        fill: #877446;
        stroke-width: 0px;
      }
    </style>
  </defs>
  <path class="cls-1" d="M0,353.62c2.81-11.15,5.64-22.29,8.44-33.44,1.12-4.44,2.13-8.91,3.28-13.34,1.15-4.44,3.81-6.36,7.5-5.54,3.56.79,5.2,3.92,4.15,8.29-2.7,11.31-5.47,22.6-8.21,33.9-.1.43-.14.88-.3,1.99,16.81-6.36,33.19-12.56,49.51-18.73-4.37-5.05-8.87-9.7-12.75-14.83-12.08-15.95-17.84-34.19-19.11-54.03-.58-9.03-1.51-18.04-2.16-27.07-.37-5.11,1.71-7.86,5.69-7.97,3.87-.11,5.88,2.36,6.35,7.25,1.34,14.15,1.94,28.45,4.41,42.41,3.48,19.72,14.23,35.57,29.65,48.23.56.46,1.73.69,2.39.44,22.64-8.52,45.24-17.1,67.85-25.69.06-.02.07-.17.2-.55-2.42-1.26-4.91-2.49-7.35-3.83-52.21-28.7-83.77-72.39-94.86-130.87-.39-2.03-.22-4.78.89-6.31,1.07-1.46,3.73-2.44,5.67-2.41,3.06.05,4.48,2.56,5.11,5.45,1.39,6.43,2.44,12.95,4.33,19.23,15.87,52.96,49.46,90.09,100.33,111.63,1.32.56,3.12,1.07,4.33.62,13.54-4.98,27.01-10.16,40.54-15.3-6.89-3.3-13.73-6.21-20.24-9.74-34.99-18.99-63.49-45.54-88.21-76.39-12.76-15.93-24.08-32.8-31.51-51.95-3.68-9.48-6.43-19.21-4.65-29.58,2.37-13.79,16.52-22.96,30.07-19.53,3.43.87,5.21,3.39,4.76,6.73-.42,3.17-3.08,5.22-6.55,5.02-1.29-.07-2.58-.29-3.86-.25-7.99.29-12.65,4.9-12.93,12.87-.26,7.44,1.88,14.42,4.6,21.21,7.6,18.98,19.09,35.58,31.99,51.24,24.22,29.43,52.1,54.57,86.12,72.34,8.79,4.59,17.94,8.28,27.96,9.08,2.54.2,5.2.06,7.69-.47,4.88-1.04,7.61-4.49,8.22-9.79.8-6.96-.94-13.53-3.09-20.04-.51-1.56-1.17-3.12-1.33-4.72-.31-3.07,1.14-5.28,4.11-6.16,2.94-.88,5.71-.03,6.88,2.78,4.47,10.77,7.49,21.88,4.57,33.63-1.86,7.45-6.65,12.56-13.88,15.28-28.24,10.61-56.5,21.16-84.73,31.82-47.24,17.83-94.45,35.72-141.67,53.6-.85.32-1.62.84-2.42,1.27H0c0-2.59,0-5.18,0-7.76Z"/>
  <path class="cls-1" d="M348.68,361.39c-4.78-3.13-5.3-5.2-2.75-10.57,4.08-8.59,4.16-17.22.16-25.85-.46-1-1.11-1.91-1.67-2.86-1.18,4.18-1.9,8.24-3.45,11.95-3.72,8.92-10.69,13.92-20.3,14.59-10.07.7-17.93-3.55-22.77-12.41-4.67-8.56-4.17-17.2,1.44-25.29,4.87-7.02,11.58-11.55,19.82-13.81.77-.21,1.53-.5,2.61-.87-7.94-8.99-17.18-15.73-27.98-20.13-5.3-2.15-10.92-3.56-16.47-5.02-4.3-1.13-6.74-3.72-6.07-7.19.72-3.75,3.95-5.57,8.45-4.67,24.94,5.02,44.55,18.08,59,39,1.43,2.07,3.26,4.01,5.28,5.49,16.59,12.14,21.97,35.71,12.02,53.63-.86,1.55-2.5,2.67-3.78,3.99h-3.53ZM332.38,320.2c-.15-.06-.29-.11-.44-.17-.17-1.63-.19-3.3-.55-4.89-1.39-6.18-4.5-7.92-10.57-5.96-4.98,1.61-8.98,4.55-11.86,8.95-3.79,5.78-2.11,13.43,3.69,16.93,5.99,3.62,13.84,1.56,16.85-4.83,1.46-3.11,1.95-6.67,2.87-10.03Z"/>
  <path class="cls-1" d="M37.41,0c1.89,2.1,3.82,4.16,5.64,6.32.59.7,1.04,1.61,1.25,2.5,2.21,9.23,8.56,12.49,17.43,12.36,1.74-.02,3.67.08,5.18.81,1.86.91,4.28,2.27,4.78,3.93.55,1.84-.16,4.79-1.45,6.32-3.23,3.85-7.2,7.07-10.64,10.76-.93,1-1.51,2.87-1.35,4.23.54,4.54,1.49,9.02,2.28,13.53.5,2.8.39,5.45-2.17,7.3-2.52,1.83-5.04,1.3-7.59-.1-4.01-2.2-8.01-4.45-12.17-6.33-1.34-.6-3.42-.58-4.77.03-4.16,1.87-8.17,4.11-12.18,6.31-2.56,1.41-5.08,1.96-7.58.13-2.37-1.73-2.72-4.16-2.21-6.93.86-4.61,1.73-9.24,2.22-13.89.15-1.45-.48-3.4-1.45-4.49C8.57,38.28,4.23,34.01,0,29.65c0-1.18,0-2.35,0-3.53,1.66-2.84,4.04-4.22,7.4-4.49,4.32-.35,8.63-1.06,12.87-1.95,1.36-.28,2.95-1.37,3.64-2.55,2.06-3.54,3.47-7.47,5.64-10.93,1.47-2.34,3.8-4.15,5.74-6.19.71,0,1.41,0,2.12,0ZM53.04,32.12c-9.31.62-14.27-3.93-16.96-12.31-2.17,9.01-7.97,12.49-16.8,12.47,7.65,4.88,9.32,11.35,6.13,19.55,4.25-1.7,7.58-4.09,10.9-4.06,3.34.03,6.65,2.46,10.88,4.22-3.79-8.38-1.64-14.76,5.85-19.87Z"/>
  <path class="cls-1" d="M135.52,0c3.33,1.73,6.52,3.55,8.07,7.31,2.48,6.02-.16,12.98-6.07,15.68-5.8,2.65-12.68.28-15.64-5.4-3.01-5.77-.85-12.95,4.86-16.09C127.76.95,128.83.5,129.87,0c1.88,0,3.76,0,5.65,0Z"/>
  <path class="cls-1" d="M361.39,122.11c-2.8,4.09-10.23,6.16-14.59,3.55-1.63-.98-3.27-3.42-3.28-5.21-.01-1.79,1.59-4.26,3.21-5.26,4.24-2.61,11.7-.61,14.66,3.39v3.53Z"/>
  <path class="cls-1" d="M302.8,0c4.1,2.67,6.18,11.3,3.26,15.14-1.1,1.45-3.5,2.72-5.23,2.64-1.73-.09-3.99-1.6-4.93-3.16C293.3,10.34,295.27,2.85,299.28,0h3.53Z"/>
  <path class="cls-1" d="M320.03,113.73c1.58,1.58,4.01,2.97,4.57,4.9.52,1.8-.68,4.31-1.64,6.25-.48.96-2.08,1.43-3.23,1.99-40.8,19.42-81.59,38.84-122.44,58.15-1.98.93-4.72,1.6-6.62.95-1.64-.56-3.18-3.02-3.68-4.92-.73-2.8,1.09-4.86,3.69-6.09,8.37-3.98,16.74-7.98,25.11-11.96,32.85-15.65,65.69-31.29,98.54-46.92,1.57-.75,3.22-1.33,5.69-2.34Z"/>
  <path class="cls-1" d="M150.57,80.54c.03,24.15-4.77,47.33-14.02,69.61-2.74,6.61-5.46,13.23-8.26,19.82-1.73,4.06-5,5.57-8.41,4.05-3.18-1.42-4.17-4.75-2.69-8.7,5.32-14.15,11.54-28.04,15.72-42.52,7.25-25.12,7.42-50.75,2.21-76.39-.14-.69-.26-1.38-.37-2.08-.75-4.44.91-7.42,4.52-8.17,3.48-.72,6.59,1.51,7.23,5.93,1.85,12.75,3.41,25.55,5.09,38.32-.34.05-.68.09-1.02.14Z"/>
  <path class="cls-1" d="M225.8,198.43c31.24.19,53.94,4.05,75.85,12.2,1.99.74,4.27,2.52,4.95,4.37.6,1.63-.2,4.84-1.52,5.86-1.63,1.26-4.64,1.73-6.72,1.21-6.7-1.68-13.18-4.27-19.88-5.96-27.1-6.84-54.39-7.1-81.8-1.94-4.62.87-9.25,1.63-13.89,2.37-4.13.66-7.2-1.23-7.79-4.7-.64-3.77,1.56-6.43,5.9-7.19,17.48-3.04,34.93-6.35,44.9-6.23Z"/>
  <path class="cls-1" d="M264.95,87.17c0,4.7.06,9.41-.01,14.11-.08,4.85-2.08,7.02-6.81,7.07-9.52.1-19.05.1-28.57,0-4.58-.05-6.72-2.21-6.77-6.76-.09-9.64-.1-19.29,0-28.93.05-4.37,2.23-6.44,6.62-6.47,9.64-.07,19.29-.07,28.93,0,4.37.03,6.48,2.13,6.58,6.51.11,4.82.03,9.64.03,14.46ZM252.65,96.19v-17.71h-17.53v17.71h17.53Z"/>
  <path class="cls-1" d="M217.62,120.17c-1.44,2.24-2.14,4.07-3.43,5.25-19.67,17.81-39.41,35.55-59.18,53.25-3.03,2.71-6.38,2.57-8.78,0-2.42-2.6-2.16-6.27.88-9.01,19.62-17.7,39.27-35.36,58.91-53.03,2.06-1.86,4.49-3.13,7-1.51,1.77,1.14,2.95,3.18,4.6,5.05Z"/>
  <path class="cls-1" d="M331.07,252.79c-9.96-.06-17.82-7.98-17.83-17.97,0-10.09,8.1-18.18,18.13-18.09,9.81.08,17.91,8.24,17.93,18.05.02,10-8.15,18.07-18.24,18.01ZM331.15,228.79c-3.31.05-5.92,2.81-5.84,6.18.08,3.4,2.75,5.9,6.17,5.77,3.16-.12,5.77-2.8,5.77-5.93,0-3.22-2.88-6.07-6.1-6.02Z"/>
  <path class="cls-1" d="M204.73,66.35c-.04,9.93-7.99,17.84-17.97,17.86-10.1.02-18.12-8.02-18.07-18.13.05-9.83,8.15-17.92,17.98-17.95,9.97-.03,18.09,8.17,18.05,18.22ZM186.68,72.15c3.4.02,6.04-2.61,6.01-5.97-.03-3.16-2.61-5.83-5.76-5.95-3.25-.13-6.13,2.6-6.21,5.88-.07,3.33,2.58,6.03,5.96,6.05Z"/>
  <path class="cls-1" d="M331.12,93.52c.04,6.02-1.94,8.89-6.03,8.81-4.01-.07-5.97-3.03-5.95-9.02,0-1.4-.06-2.84.23-4.2.67-3.15,3.38-5.12,6.45-4.7,3.19.44,5.04,2.32,5.29,5.59.09,1.17.01,2.34.01,3.52Z"/>
  <path class="cls-1" d="M316.23,18.18c6.07-.06,8.96,1.86,8.97,5.89.01,4.05-2.99,6.12-8.93,6.1-1.4,0-2.84.01-4.2-.26-3.19-.64-4.85-2.78-4.91-5.97-.06-3.04,2.32-5.42,5.55-5.73,1.16-.11,2.34-.02,3.52-.02Z"/>
  <path class="cls-1" d="M352.35,98.02c-.04,4.89-6.29,11.57-9.91,11.22-1.84-.18-4.2-1.38-5.11-2.86-.9-1.48-1.03-4.35-.15-5.8,1.53-2.51,3.83-4.82,6.33-6.38,1.44-.9,4.22-.8,5.82,0,1.58.79,2.44,3.02,3.02,3.82Z"/>
  <path class="cls-1" d="M331.15,147.48c0,.94.04,1.88-.01,2.82-.19,3.65-2.57,6.18-5.84,6.25-3.22.06-5.85-2.45-6.12-6.03-.14-1.87-.12-3.76-.02-5.63.19-3.82,2.75-6.46,6.1-6.42,3.4.04,5.75,2.64,5.89,6.55.03.82,0,1.64,0,2.46Z"/>
  <path class="cls-1" d="M307.09,39.35c0,.7.02,1.41,0,2.11-.12,4.2-2.42,6.68-6.1,6.62-3.48-.06-5.76-2.55-5.9-6.51-.06-1.64-.06-3.28,0-4.92.16-3.95,2.47-6.41,5.97-6.43,3.56-.03,5.86,2.38,6.02,6.33.04.94,0,1.88,0,2.81Z"/>
  <path class="cls-1" d="M286.17,18.12c.7,0,1.41-.02,2.11,0,4.25.14,6.78,2.37,6.77,5.96,0,3.55-2.57,5.88-6.78,6.06-1.75.08-3.53.11-5.27-.06-3.7-.36-5.96-2.81-5.87-6.18.08-3.35,2.46-5.56,6.23-5.77.93-.05,1.87,0,2.81,0h0Z"/>
  <path class="cls-1" d="M309.18,109.35c-4.75-.07-11.55-6.61-11.08-10.11.25-1.84,1.53-4.17,3.06-5.04,1.51-.86,4.34-.86,5.82.04,2.42,1.47,4.66,3.71,6.12,6.14.89,1.48.8,4.24,0,5.84-.8,1.6-3.04,2.48-3.91,3.13Z"/>
  <path class="cls-1" d="M341.1,131.51c5.03-.04,11.35,6.45,11.23,10.32-.14,4.54-5.07,7.43-8.82,4.88-2.37-1.61-4.63-3.75-6.11-6.16-.91-1.48-.89-4.22-.13-5.85.76-1.61,2.99-2.54,3.83-3.19Z"/>
</svg>