<?xml version="1.0" encoding="utf-8"?>
<!-- Generator: Adobe Illustrator 28.3.0, SVG Export Plug-In . SVG Version: 6.00 Build 0)  -->
<svg version="1.1" id="Capa_1" xmlns="http://www.w3.org/2000/svg" xmlns:xlink="http://www.w3.org/1999/xlink" x="0px" y="0px"
	 viewBox="0 0 1333 160" style="enable-background:new 0 0 1333 160;" xml:space="preserve">
<style type="text/css">
	.st0{fill:#C8B273;}
	.st1{fill:#FFFAF8;}
	.st2{fill:#F5E8E0;}
</style>
<path class="st0" d="M0,92.3c0,0,78-53.1,245.3-66.9C412.6,11.7,551,73.7,551,73.7s105.9,75.2,782,18.6v53.1H0
	C0,145.4,0,92.3,0,92.3z"/>
<path class="st1" d="M0,113.7c0,0,177.4,56.6,632.6-64.3s700.4,18,700.4,18V160H0V113.7L0,113.7z"/>
<path class="st2" d="M0,138.6c0,0,349,18.3,734.1-39.9C1119.2,40.4,1333,77.8,1333,77.8V160H0V138.6z"/>
</svg>
